<?xml version="1.0" standalone="no"?>
<!DOCTYPE svg PUBLIC "-//W3C//DTD SVG 20010904//EN"
 "http://www.w3.org/TR/2001/REC-SVG-20010904/DTD/svg10.dtd">
<svg version="1.0" xmlns="http://www.w3.org/2000/svg"
 width="536.000000pt" height="500.000000pt" viewBox="0 0 536.000000 500.000000"
 preserveAspectRatio="xMidYMid meet">

<g transform="translate(0.000000,500.000000) scale(0.100000,-0.100000)"
fill="#000000" stroke="none">
<path d="M4032 4459 c-294 -62 -744 -263 -1202 -537 -69 -41 -145 -88 -169
-105 l-43 -29 -50 16 c-109 35 -221 16 -393 -68 -285 -139 -654 -436 -1124
-903 -146 -144 -263 -264 -260 -267 2 -2 132 -12 289 -21 156 -9 285 -17 287
-18 1 -2 -14 -23 -34 -47 -293 -366 -497 -977 -529 -1590 l-7 -126 124 8 c638
40 1217 234 1590 534 l66 53 6 -102 c4 -56 12 -195 18 -309 7 -115 15 -208 19
-208 14 0 550 550 663 681 306 353 505 652 566 853 30 97 29 198 -3 261 l-25
48 93 151 c299 485 512 956 582 1286 18 81 19 245 3 299 -19 62 -70 116 -135
140 -71 27 -204 27 -332 0z m307 -87 c98 -49 111 -177 44 -431 -104 -398 -507
-1167 -808 -1539 -99 -122 -297 -292 -473 -406 l-72 -47 -83 15 c-130 25 -259
72 -362 134 -164 98 -312 239 -420 402 -93 140 -141 259 -170 423 l-14 79 69
103 c69 103 172 231 267 331 251 268 1071 733 1573 892 199 63 378 81 449 44z
m-1831 -651 c-1 -5 -41 -37 -88 -72 -205 -151 -448 -452 -577 -714 -44 -91
-71 -163 -119 -324 -3 -10 -20 -12 -72 -7 -37 4 -155 11 -262 16 -107 6 -241
13 -298 17 l-104 6 119 119 c134 136 405 386 540 499 280 236 519 390 688 445
69 23 180 32 173 15z m-588 -890 c0 -11 14 -59 31 -108 136 -387 479 -714 864
-823 33 -9 59 -21 57 -26 -6 -15 -141 -63 -239 -84 -117 -25 -219 -25 -317 0
-294 75 -515 352 -516 646 0 104 41 281 90 387 15 31 30 36 30 8z m-245 -321
l32 0 6 -116 5 -116 -54 -72 c-138 -181 -218 -416 -231 -678 l-6 -128 95 0
c247 0 554 101 724 238 l60 49 126 -5 125 -5 7 -96 7 -96 -63 -58 c-256 -235
-727 -437 -1203 -516 -154 -26 -398 -52 -406 -43 -10 12 19 279 46 427 86 475
257 876 491 1159 l58 69 74 -7 c41 -3 89 -6 107 -6z m2099 -36 c23 -59 -6
-189 -70 -316 -136 -270 -462 -675 -872 -1081 l-139 -139 -7 119 c-3 65 -11
199 -16 298 -5 99 -12 217 -16 261 l-6 82 33 7 c318 70 787 394 1014 703 33
44 63 81 66 82 4 0 10 -7 13 -16z"/>
<path d="M3712 4064 c-207 -61 -455 -224 -648 -426 -103 -107 -137 -206 -116
-334 40 -243 285 -429 509 -387 100 19 144 46 254 160 195 203 344 439 389
617 39 153 24 293 -37 348 -61 55 -209 64 -351 22z m228 -74 c0 -5 -185 -195
-411 -422 l-412 -412 -22 28 c-55 68 -71 207 -35 291 20 47 79 110 203 218
176 154 378 265 538 296 62 12 139 13 139 1z m76 -237 c-21 -98 -70 -211 -141
-320 -99 -152 -272 -349 -344 -391 -41 -24 -56 -27 -136 -27 -80 0 -97 3 -147
29 -32 16 -58 32 -58 35 0 3 188 194 418 424 l417 417 3 -46 c2 -25 -4 -79
-12 -121z"/>
</g>
</svg>
